999
dxfrw 0.6.3
  0
SECTION
  2
HEADER
  9
$ACADVER
  1
AC1021
  9
$DWGCODEPAGE
  3
ANSI_1252
  9
$INSBASE
 10
0
 20
0
 30
0
  9
$EXTMIN
 10
-20.49342156177755
 20
5.060721097041124
 30
0
  9
$EXTMAX
 10
315.4902718470381
 20
65.8754262877124
 30
0
  9
$LIMMIN
 10
0
 20
0
  9
$LIMMAX
 10
420
 20
297
  9
$ORTHOMODE
 70
    0
  9
$REGENMODE
 70
    1
  9
$FILLMODE
 70
    1
  9
$QTEXTMODE
 70
    0
  9
$MIRRTEXT
 70
    0
  9
$LTSCALE
 40
1
  9
$ATTMODE
 70
    1
  9
$TEXTSIZE
 40
2.5
  9
$TRACEWID
 40
1
  9
$TEXTSTYLE
  7
Standard
  9
$CLAYER
  8
Dimensions
  9
$CELTYPE
  6
ByLayer
  9
$CECOLOR
 62
  256
  9
$CELTSCALE
 40
1
  9
$DISPSILH
 70
    0
  9
$DIMSCALE
 40
1
  9
$DIMASZ
 40
2.5
  9
$DIMEXO
 40
0.625
  9
$DIMDLI
 40
3.75
  9
$DIMRND
 40
0
  9
$DIMDLE
 40
0
  9
$DIMEXE
 40
1.25
  9
$DIMTP
 40
0
  9
$DIMTM
 40
0
  9
$DIMTXT
 40
2.5
  9
$DIMCEN
 40
2.5
  9
$DIMTSZ
 40
0
  9
$DIMTOL
 70
    0
  9
$DIMLIM
 70
    0
  9
$DIMTIH
 70
    0
  9
$DIMTOH
 70
    0
  9
$DIMSE1
 70
    0
  9
$DIMSE2
 70
    0
  9
$DIMTAD
 70
    1
  9
$DIMZIN
 70
    8
  9
$DIMBLK
  1

  9
$DIMASO
 70
    1
  9
$DIMSHO
 70
    1
  9
$DIMPOST
  1

  9
$DIMAPOST
  1

  9
$DIMALT
 70
    0
  9
$DIMALTD
 70
    3
  9
$DIMALTF
 40
0.03937007874016
  9
$DIMLFAC
 40
1
  9
$DIMTOFL
 70
    1
  9
$DIMTVP
 40
0
  9
$DIMTIX
 70
    0
  9
$DIMSOXD
 70
    0
  9
$DIMSAH
 70
    0
  9
$DIMBLK1
  1

  9
$DIMBLK2
  1

  9
$DIMSTYLE
  2
ISO-25
  9
$DIMCLRD
 70
    0
  9
$DIMCLRE
 70
    0
  9
$DIMCLRT
 70
    0
  9
$DIMTFAC
 40
1
  9
$DIMGAP
 40
0.625
  9
$DIMJUST
 70
    0
  9
$DIMSD1
 70
    0
  9
$DIMSD2
 70
    0
  9
$DIMTOLJ
 70
    0
  9
$DIMTZIN
 70
    8
  9
$DIMALTZ
 70
    0
  9
$DIMALTTZ
 70
    0
  9
$DIMUPT
 70
    0
  9
$DIMDEC
 70
    2
  9
$DIMTDEC
 70
    2
  9
$DIMALTU
 70
    2
  9
$DIMALTTD
 70
    3
  9
$DIMTXSTY
  7
Standard
  9
$DIMAUNIT
 70
    0
  9
$DIMADEC
 70
    0
  9
$DIMALTRND
 40
0
  9
$DIMAZIN
 70
    0
  9
$DIMDSEP
 70
   44
  9
$DIMATFIT
 70
    3
  9
$DIMFRAC
 70
    0
  9
$DIMLDRBLK
  1

  9
$DIMLUNIT
 70
    2
  9
$DIMLWD
 70
   -2
  9
$DIMLWE
 70
   -2
  9
$DIMTMOVE
 70
    0
  9
$DIMFXL
 40
1
  9
$DIMFXLON
 70
    0
  9
$DIMJOGANG
 40
0.7853981633974483
  9
$DIMTFILL
 70
    0
  9
$DIMTFILLCLR
 70
    0
  9
$DIMARCSYM
 70
    0
  9
$DIMLTYPE
  6

  9
$DIMLTEX1
  6

  9
$DIMLTEX2
  6

  9
$LUNITS
 70
    2
  9
$LUPREC
 70
    4
  9
$SKETCHINC
 40
1
  9
$FILLETRAD
 40
0
  9
$AUNITS
 70
    0
  9
$AUPREC
 70
    0
  9
$MENU
  1
.
  9
$ELEVATION
 40
0
  9
$PELEVATION
 40
0
  9
$THICKNESS
 40
0
  9
$LIMCHECK
 70
    0
  9
$CHAMFERA
 40
0
  9
$CHAMFERB
 40
0
  9
$CHAMFERC
 40
0
  9
$CHAMFERD
 40
0
  9
$SKPOLY
 70
    0
  9
$USRTIMER
 70
    1
  9
$ANGBASE
 50
0
  9
$ANGDIR
 70
    0
  9
$PDMODE
 70
    0
  9
$PDSIZE
 40
0
  9
$PLINEWID
 40
0
  9
$SPLFRAME
 70
    0
  9
$SPLINETYPE
 70
    6
  9
$SPLINESEGS
 70
    8
  9
$HANDSEED
  5
20000
  9
$SURFTAB1
 70
    6
  9
$SURFTAB2
 70
    6
  9
$SURFTYPE
 70
    6
  9
$SURFU
 70
    6
  9
$SURFV
 70
    6
  9
$UCSBASE
  2

  9
$UCSNAME
  2

  9
$UCSORG
 10
0
 20
0
 30
0
  9
$UCSXDIR
 10
1
 20
0
 30
0
  9
$UCSYDIR
 10
0
 20
1
 30
0
  9
$UCSORTHOREF
  2

  9
$UCSORTHOVIEW
 70
    0
  9
$UCSORGTOP
 10
0
 20
0
 30
0
  9
$UCSORGBOTTOM
 10
0
 20
0
 30
0
  9
$UCSORGLEFT
 10
0
 20
0
 30
0
  9
$UCSORGRIGHT
 10
0
 20
0
 30
0
  9
$UCSORGFRONT
 10
0
 20
0
 30
0
  9
$UCSORGBACK
 10
0
 20
0
 30
0
  9
$PUCSBASE
  2

  9
$PUCSNAME
  2

  9
$PUCSORG
 10
0
 20
0
 30
0
  9
$PUCSXDIR
 10
1
 20
0
 30
0
  9
$PUCSYDIR
 10
0
 20
1
 30
0
  9
$PUCSORTHOREF
  2

  9
$PUCSORTHOVIEW
 70
    0
  9
$PUCSORGTOP
 10
0
 20
0
 30
0
  9
$PUCSORGBOTTOM
 10
0
 20
0
 30
0
  9
$PUCSORGLEFT
 10
0
 20
0
 30
0
  9
$PUCSORGRIGHT
 10
0
 20
0
 30
0
  9
$PUCSORGFRONT
 10
0
 20
0
 30
0
  9
$PUCSORGBACK
 10
0
 20
0
 30
0
  9
$USERI1
 70
    0
  9
$USERI2
 70
    0
  9
$USERI3
 70
    0
  9
$USERI4
 70
    0
  9
$USERI5
 70
    0
  9
$USERR1
 40
0
  9
$USERR2
 40
0
  9
$USERR3
 40
0
  9
$USERR4
 40
0
  9
$USERR5
 40
0
  9
$WORLDVIEW
 70
    1
  9
$SHADEDGE
 70
    3
  9
$SHADEDIF
 70
   70
  9
$TILEMODE
 70
    1
  9
$MAXACTVP
 70
   64
  9
$PINSBASE
 10
0
 20
0
 30
0
  9
$PLIMCHECK
 70
    0
  9
$PEXTMIN
 10
0
 20
0
 30
0
  9
$PEXTMAX
 10
0
 20
0
 30
0
  9
$GRIDMODE
 70
    1
  9
$SNAPSTYLE
 70
    0
  9
$PLIMMIN
 10
0
 20
0
  9
$PLIMMAX
 10
12
 20
9
  9
$UNITMODE
 70
    0
  9
$VISRETAIN
 70
    1
  9
$PLINEGEN
 70
    0
  9
$PSLTSCALE
 70
    1
  9
$TREEDEPTH
 70
 3020
  9
$CMLSTYLE
  2
Standard
  9
$CMLJUST
 70
    0
  9
$CMLSCALE
 40
20
  9
$PROXYGRAPHICS
 70
    1
  9
$MEASUREMENT
 70
    1
  9
$CELWEIGHT
370
   -1
  9
$ENDCAPS
280
    0
  9
$JOINSTYLE
280
    0
  9
$LWDISPLAY
290
    0
  9
$INSUNITS
 70
    4
  9
$HYPERLINKBASE
  1

  9
$STYLESHEET
  1

  9
$XEDIT
290
    1
  9
$CEPSNTYPE
380
    0
  9
$PSTYLEMODE
290
    1
  9
$EXTNAMES
290
    1
  9
$PSVPSCALE
 40
0
  9
$OLESTARTUP
290
    0
  9
$SORTENTS
280
  127
  9
$INDEXCTL
280
    0
  9
$HIDETEXT
280
    1
  9
$XCLIPFRAME
290
    2
  9
$HALOGAP
280
    0
  9
$OBSCOLOR
 70
  257
  9
$OBSLTYPE
280
    0
  9
$INTERSECTIONDISPLAY
280
    0
  9
$INTERSECTIONCOLOR
 70
  257
  9
$DIMASSOC
280
    2
  9
$PROJECTNAME
  1

  9
$CAMERADISPLAY
290
    0
  9
$LENSLENGTH
 40
50
  9
$CAMERAHEIGHT
 40
0
  9
$STEPSPERSEC
 40
2
  9
$STEPSIZE
 40
6
  9
$3DDWFPREC
 40
2
  9
$PSOLWIDTH
 40
5
  9
$PSOLHEIGHT
 40
80
  9
$LOFTANG1
 40
1.570796326794896
  9
$LOFTANG2
 40
1.570796326794896
  9
$LOFTMAG1
 40
0
  9
$LOFTMAG2
 40
0
  9
$LOFTPARAM
 70
    7
  9
$LOFTNORMALS
280
    1
  9
$LATITUDE
 40
37.795
  9
$LONGITUDE
 40
-122.394
  9
$NORTHDIRECTION
 40
0
  9
$TIMEZONE
 70
-8000
  9
$LIGHTGLYPHDISPLAY
280
    1
  9
$TILEMODELIGHTSYNCH
280
    1
  9
$SOLIDHIST
280
    0
  9
$SHOWHIST
280
    1
  9
$DWFFRAME
280
    2
  9
$DGNFRAME
280
    0
  9
$REALWORLDSCALE
290
    1
  9
$INTERFERECOLOR
 62
    1
  9
$CSHADOW
280
    0
  9
$SHADOWPLANELOCATION
 40
0
  0
ENDSEC
  0
SECTION
  2
CLASSES
  0
ENDSEC
  0
SECTION
  2
TABLES
  0
TABLE
  2
VPORT
  5
8
330
0
100
AcDbSymbolTable
 70
    1
  0
VPORT
  5
31
330
2
100
AcDbSymbolTableRecord
100
AcDbViewportTableRecord
  2
*ACTIVE
 70
    0
 10
0
 20
0
 11
1
 21
1
 12
-20.9168087625708
 22
-40.89983141966969
 13
0
 23
0
 14
10
 24
10
 15
10
 25
10
 16
0
 26
0
 36
1
 17
0
 27
0
 37
0
 40
11.39219048675731
 41
1.311475409836065
 42
50
 43
0
 44
0
 50
0
 51
0
 71
    0
 72
  100
 73
    1
 74
    3
 75
    0
 76
    1
 77
    0
 78
    0
281
    0
 65
    1
110
0
120
0
130
0
111
1
121
0
131
0
112
0
122
1
132
0
 79
    0
146
0
348
10020
 60
    7
 61
    5
292
1
282
    1
141
0
142
0
 63
  250
421
3358443
  0
ENDTAB
  0
TABLE
  2
LTYPE
  5
5
330
0
100
AcDbSymbolTable
 70
    4
  0
LTYPE
  5
14
330
5
100
AcDbSymbolTableRecord
100
AcDbLinetypeTableRecord
  2
ByBlock
 70
    0
  3

 72
   65
 73
    0
 40
0
  0
LTYPE
  5
15
330
5
100
AcDbSymbolTableRecord
100
AcDbLinetypeTableRecord
  2
ByLayer
 70
    0
  3

 72
   65
 73
    0
 40
0
  0
LTYPE
  5
16
330
5
100
AcDbSymbolTableRecord
100
AcDbLinetypeTableRecord
  2
Continuous
 70
    0
  3
Solid line
 72
   65
 73
    0
 40
0
  0
LTYPE
  5
32
330
5
100
AcDbSymbolTableRecord
100
AcDbLinetypeTableRecord
  2
DOT
 70
    0
  3
Dot . . . . . . . . . . . . . . . . . . . . . .
 72
   65
 73
    2
 40
6.35
 49
0
 74
    0
 49
-6.35
 74
    0
  0
LTYPE
  5
33
330
5
100
AcDbSymbolTableRecord
100
AcDbLinetypeTableRecord
  2
DOTTINY
 70
    0
  3
Dot (.15x) .....................................
 72
   65
 73
    2
 40
0.9525
 49
0
 74
    0
 49
-0.9525
 74
    0
  0
LTYPE
  5
34
330
5
100
AcDbSymbolTableRecord
100
AcDbLinetypeTableRecord
  2
DOT2
 70
    0
  3
Dot (.5x) .....................................
 72
   65
 73
    2
 40
3.175
 49
0
 74
    0
 49
-3.175
 74
    0
  0
LTYPE
  5
35
330
5
100
AcDbSymbolTableRecord
100
AcDbLinetypeTableRecord
  2
DOTX2
 70
    0
  3
Dot (2x) .  .  .  .  .  .  .  .  .  .  .  .  .
 72
   65
 73
    2
 40
12.7
 49
0
 74
    0
 49
-12.7
 74
    0
  0
LTYPE
  5
36
330
5
100
AcDbSymbolTableRecord
100
AcDbLinetypeTableRecord
  2
DASHED
 70
    0
  3
Dashed _ _ _ _ _ _ _ _ _ _ _ _ _ _ _ _ _
 72
   65
 73
    2
 40
19.05
 49
12.7
 74
    0
 49
-6.35
 74
    0
  0
LTYPE
  5
37
330
5
100
AcDbSymbolTableRecord
100
AcDbLinetypeTableRecord
  2
DASHEDTINY
 70
    0
  3
Dashed (.15x) _ _ _ _ _ _ _ _ _ _ _ _ _ _ _ _ _
 72
   65
 73
    2
 40
2.8575
 49
1.905
 74
    0
 49
-0.9525
 74
    0
  0
LTYPE
  5
38
330
5
100
AcDbSymbolTableRecord
100
AcDbLinetypeTableRecord
  2
DASHED2
 70
    0
  3
Dashed (.5x) _ _ _ _ _ _ _ _ _ _ _ _ _ _ _ _ _
 72
   65
 73
    2
 40
9.524999999999999
 49
6.35
 74
    0
 49
-3.175
 74
    0
  0
LTYPE
  5
39
330
5
100
AcDbSymbolTableRecord
100
AcDbLinetypeTableRecord
  2
DASHEDX2
 70
    0
  3
Dashed (2x) ____  ____  ____  ____  ____  ___
 72
   65
 73
    2
 40
38.09999999999999
 49
25.4
 74
    0
 49
-12.7
 74
    0
  0
LTYPE
  5
3A
330
5
100
AcDbSymbolTableRecord
100
AcDbLinetypeTableRecord
  2
DASHDOT
 70
    0
  3
Dash dot __ . __ . __ . __ . __ . __ . __ . __
 72
   65
 73
    4
 40
25.4
 49
12.7
 74
    0
 49
-6.35
 74
    0
 49
0
 74
    0
 49
-6.35
 74
    0
  0
LTYPE
  5
3B
330
5
100
AcDbSymbolTableRecord
100
AcDbLinetypeTableRecord
  2
DASHDOTTINY
 70
    0
  3
Dash dot (.15x) _._._._._._._._._._._._._._._.
 72
   65
 73
    4
 40
3.81
 49
1.905
 74
    0
 49
-0.9525
 74
    0
 49
0
 74
    0
 49
-0.9525
 74
    0
  0
LTYPE
  5
3C
330
5
100
AcDbSymbolTableRecord
100
AcDbLinetypeTableRecord
  2
DASHDOT2
 70
    0
  3
Dash dot (.5x) _._._._._._._._._._._._._._._.
 72
   65
 73
    4
 40
12.7
 49
6.35
 74
    0
 49
-3.175
 74
    0
 49
0
 74
    0
 49
-3.175
 74
    0
  0
LTYPE
  5
3D
330
5
100
AcDbSymbolTableRecord
100
AcDbLinetypeTableRecord
  2
DASHDOTX2
 70
    0
  3
Dash dot (2x) ____  .  ____  .  ____  .  ___
 72
   65
 73
    4
 40
50.8
 49
25.4
 74
    0
 49
-12.7
 74
    0
 49
0
 74
    0
 49
-12.7
 74
    0
  0
LTYPE
  5
3E
330
5
100
AcDbSymbolTableRecord
100
AcDbLinetypeTableRecord
  2
DIVIDE
 70
    0
  3
Divide ____ . . ____ . . ____ . . ____ . . ____
 72
   65
 73
    6
 40
31.75
 49
12.7
 74
    0
 49
-6.35
 74
    0
 49
0
 74
    0
 49
-6.35
 74
    0
 49
0
 74
    0
 49
-6.35
 74
    0
  0
LTYPE
  5
3F
330
5
100
AcDbSymbolTableRecord
100
AcDbLinetypeTableRecord
  2
DIVIDETINY
 70
    0
  3
Divide (.15x) __..__..__..__..__..__..__..__.._
 72
   65
 73
    6
 40
4.7625
 49
1.905
 74
    0
 49
-0.9525
 74
    0
 49
0
 74
    0
 49
-0.9525
 74
    0
 49
0
 74
    0
 49
-0.9525
 74
    0
  0
LTYPE
  5
40
330
5
100
AcDbSymbolTableRecord
100
AcDbLinetypeTableRecord
  2
DIVIDE2
 70
    0
  3
Divide (.5x) __..__..__..__..__..__..__..__.._
 72
   65
 73
    6
 40
15.875
 49
6.35
 74
    0
 49
-3.175
 74
    0
 49
0
 74
    0
 49
-3.175
 74
    0
 49
0
 74
    0
 49
-3.175
 74
    0
  0
LTYPE
  5
41
330
5
100
AcDbSymbolTableRecord
100
AcDbLinetypeTableRecord
  2
DIVIDEX2
 70
    0
  3
Divide (2x) ________  .  .  ________  .  .  _
 72
   65
 73
    6
 40
63.5
 49
25.4
 74
    0
 49
-12.7
 74
    0
 49
0
 74
    0
 49
-12.7
 74
    0
 49
0
 74
    0
 49
-12.7
 74
    0
  0
LTYPE
  5
42
330
5
100
AcDbSymbolTableRecord
100
AcDbLinetypeTableRecord
  2
BORDER
 70
    0
  3
Border __ __ . __ __ . __ __ . __ __ . __ __ .
 72
   65
 73
    6
 40
44.45
 49
12.7
 74
    0
 49
-6.35
 74
    0
 49
12.7
 74
    0
 49
-6.35
 74
    0
 49
0
 74
    0
 49
-6.35
 74
    0
  0
LTYPE
  5
43
330
5
100
AcDbSymbolTableRecord
100
AcDbLinetypeTableRecord
  2
BORDERTINY
 70
    0
  3
Border (.15x) __.__.__.__.__.__.__.__.__.__.__.
 72
   65
 73
    6
 40
6.6675
 49
1.905
 74
    0
 49
-0.9525
 74
    0
 49
1.905
 74
    0
 49
-0.9525
 74
    0
 49
0
 74
    0
 49
-0.9525
 74
    0
  0
LTYPE
  5
44
330
5
100
AcDbSymbolTableRecord
100
AcDbLinetypeTableRecord
  2
BORDER2
 70
    0
  3
Border (.5x) __.__.__.__.__.__.__.__.__.__.__.
 72
   65
 73
    6
 40
22.225
 49
6.35
 74
    0
 49
-3.175
 74
    0
 49
6.35
 74
    0
 49
-3.175
 74
    0
 49
0
 74
    0
 49
-3.175
 74
    0
  0
LTYPE
  5
45
330
5
100
AcDbSymbolTableRecord
100
AcDbLinetypeTableRecord
  2
BORDERX2
 70
    0
  3
Border (2x) ____  ____  .  ____  ____  .  ___
 72
   65
 73
    6
 40
88.89999999999999
 49
25.4
 74
    0
 49
-12.7
 74
    0
 49
25.4
 74
    0
 49
-12.7
 74
    0
 49
0
 74
    0
 49
-12.7
 74
    0
  0
LTYPE
  5
46
330
5
100
AcDbSymbolTableRecord
100
AcDbLinetypeTableRecord
  2
CENTER
 70
    0
  3
Center ____ _ ____ _ ____ _ ____ _ ____ _ ____
 72
   65
 73
    4
 40
50.8
 49
31.75
 74
    0
 49
-6.35
 74
    0
 49
6.35
 74
    0
 49
-6.35
 74
    0
  0
LTYPE
  5
47
330
5
100
AcDbSymbolTableRecord
100
AcDbLinetypeTableRecord
  2
CENTERTINY
 70
    0
  3
Center (.15x) ___ _ ___ _ ___ _ ___ _ ___ _ ___
 72
   65
 73
    4
 40
7.619999999999999
 49
4.7625
 74
    0
 49
-0.9525
 74
    0
 49
0.9525
 74
    0
 49
-0.9525
 74
    0
  0
LTYPE
  5
48
330
5
100
AcDbSymbolTableRecord
100
AcDbLinetypeTableRecord
  2
CENTER2
 70
    0
  3
Center (.5x) ___ _ ___ _ ___ _ ___ _ ___ _ ___
 72
   65
 73
    4
 40
28.575
 49
19.05
 74
    0
 49
-3.175
 74
    0
 49
3.175
 74
    0
 49
-3.175
 74
    0
  0
LTYPE
  5
49
330
5
100
AcDbSymbolTableRecord
100
AcDbLinetypeTableRecord
  2
CENTERX2
 70
    0
  3
Center (2x) ________  __  ________  __  _____
 72
   65
 73
    4
 40
101.6
 49
63.5
 74
    0
 49
-12.7
 74
    0
 49
12.7
 74
    0
 49
-12.7
 74
    0
  0
ENDTAB
  0
TABLE
  2
LAYER
  5
2
330
0
100
AcDbSymbolTable
 70
    1
  0
LAYER
  5
10
330
2
100
AcDbSymbolTableRecord
100
AcDbLayerTableRecord
  2
0
 70
    0
 62
    7
  6
CONTINUOUS
370
   25
390
F
  0
LAYER
  5
4A
330
2
100
AcDbSymbolTableRecord
100
AcDbLayerTableRecord
  2
Dimensions
 70
    0
 62
    1
  6
CONTINUOUS
370
    5
390
F
  0
ENDTAB
  0
TABLE
  2
STYLE
  5
3
330
0
100
AcDbSymbolTable
 70
    3
  0
STYLE
  5
4B
330
2
100
AcDbSymbolTableRecord
100
AcDbTextStyleTableRecord
  2
Standard
 70
    0
 40
0
 41
1
 50
0
 71
    0
 42
1
  3
txt
  4

  0
ENDTAB
  0
TABLE
  2
VIEW
  5
6
330
0
100
AcDbSymbolTable
 70
    0
  0
ENDTAB
  0
TABLE
  2
UCS
  5
7
330
0
100
AcDbSymbolTable
 70
    0
  0
ENDTAB
  0
TABLE
  2
APPID
  5
9
330
0
100
AcDbSymbolTable
 70
    1
  0
APPID
  5
12
330
9
100
AcDbSymbolTableRecord
100
AcDbRegAppTableRecord
  2
ACAD
 70
    0
  0
APPID
  5
4C
330
9
100
AcDbSymbolTableRecord
100
AcDbRegAppTableRecord
  2
LibreCad
 70
    0
  0
ENDTAB
  0
TABLE
  2
DIMSTYLE
  5
A
330
0
100
AcDbSymbolTable
 70
    1
100
AcDbDimStyleTable
 71
    1
  0
DIMSTYLE
105
4D
330
A
100
AcDbSymbolTableRecord
100
AcDbDimStyleTableRecord
  2
Standard
 70
    0
 40
1
 41
2.5
 42
0.625
 43
0.38
 44
1.25
 45
0
 46
0
 47
0
 48
0
 49
1
140
2.5
141
0.09
142
0
143
25.4
144
1
145
0
146
1
147
0.625
148
0
 71
    0
 72
    0
 73
    0
 74
    1
 75
    0
 76
    0
 77
    0
 78
    8
 79
    0
170
    0
171
    2
172
    0
173
    0
174
    0
175
    0
176
    0
177
    0
178
    0
179
    0
271
    2
272
    4
273
    2
274
    2
275
    0
276
    0
277
    2
278
   44
279
    0
280
    0
281
    0
282
    0
283
    1
284
    0
285
    0
286
    0
288
    0
289
    3
340
Standard
341

371
   -2
372
   -2
  0
ENDTAB
  0
TABLE
  2
BLOCK_RECORD
  5
1
330
0
100
AcDbSymbolTable
 70
    2
  0
BLOCK_RECORD
  5
1F
330
1
100
AcDbSymbolTableRecord
100
AcDbBlockTableRecord
  2
*Model_Space
 70
    0
280
    1
281
    0
  0
BLOCK_RECORD
  5
1E
330
1
100
AcDbSymbolTableRecord
100
AcDbBlockTableRecord
  2
*Paper_Space
 70
    0
280
    1
281
    0
  0
BLOCK_RECORD
  5
4E
330
1
100
AcDbSymbolTableRecord
100
AcDbBlockTableRecord
  2
*D6
 70
    0
280
    1
281
    0
  0
BLOCK_RECORD
  5
51
330
1
100
AcDbSymbolTableRecord
100
AcDbBlockTableRecord
  2
*D4
 70
    0
280
    1
281
    0
  0
BLOCK_RECORD
  5
54
330
1
100
AcDbSymbolTableRecord
100
AcDbBlockTableRecord
  2
*D9
 70
    0
280
    1
281
    0
  0
BLOCK_RECORD
  5
57
330
1
100
AcDbSymbolTableRecord
100
AcDbBlockTableRecord
  2
*D1
 70
    0
280
    1
281
    0
  0
BLOCK_RECORD
  5
5A
330
1
100
AcDbSymbolTableRecord
100
AcDbBlockTableRecord
  2
*D7
 70
    0
280
    1
281
    0
  0
BLOCK_RECORD
  5
5D
330
1
100
AcDbSymbolTableRecord
100
AcDbBlockTableRecord
  2
*D2
 70
    0
280
    1
281
    0
  0
BLOCK_RECORD
  5
60
330
1
100
AcDbSymbolTableRecord
100
AcDbBlockTableRecord
  2
*D3
 70
    0
280
    1
281
    0
  0
BLOCK_RECORD
  5
63
330
1
100
AcDbSymbolTableRecord
100
AcDbBlockTableRecord
  2
*D5
 70
    0
280
    1
281
    0
  0
BLOCK_RECORD
  5
66
330
1
100
AcDbSymbolTableRecord
100
AcDbBlockTableRecord
  2
*D8
 70
    0
280
    1
281
    0
  0
BLOCK_RECORD
  5
69
330
1
100
AcDbSymbolTableRecord
100
AcDbBlockTableRecord
  2
PART__FEATURE
 70
    0
280
    1
281
    0
  0
ENDTAB
  0
ENDSEC
  0
SECTION
  2
BLOCKS
  0
BLOCK
  5
20
330
1F
100
AcDbEntity
  8
0
100
AcDbBlockBegin
  2
*Model_Space
 70
    0
 10
0
 20
0
 30
0
  3
*Model_Space
  1

  0
ENDBLK
  5
21
330
1F
100
AcDbEntity
  8
0
100
AcDbBlockEnd
  0
BLOCK
  5
1C
330
1B
100
AcDbEntity
  8
0
100
AcDbBlockBegin
  2
*Paper_Space
 70
    0
 10
0
 20
0
 30
0
  3
*Paper_Space
  1

  0
ENDBLK
  5
1D
330
1F
100
AcDbEntity
  8
0
100
AcDbBlockEnd
  0
BLOCK
  5
4F
330
4E
100
AcDbEntity
  8
0
100
AcDbBlockBegin
  2
*D6
 70
    1
 10
0
 20
0
  3
*D6
  1

  0
LINE
  5
6C
100
AcDbEntity
  8
Dimensions
  6
ByBlock
 62
    0
370
   -2
100
AcDbLine
 10
-7.470288843775287
 20
15.09620580611892
 11
-7.470288843775286
 21
25.09608939232918
  0
SOLID
  5
6D
100
AcDbEntity
  8
Dimensions
  6
ByBlock
 62
    0
370
   -2
100
AcDbTrace
 10
-7.470288843775287
 20
15.09620580611892
 30
0
 11
-7.886573501548127
 21
17.59620580611892
 31
0
 12
-7.054004186002446
 22
17.59620580611892
 32
0
 13
-7.054004186002446
 23
17.59620580611892
 33
0
  0
SOLID
  5
6E
100
AcDbEntity
  8
Dimensions
  6
ByBlock
 62
    0
370
   -2
100
AcDbTrace
 10
-7.470288843775286
 20
25.09608939232918
 30
0
 11
-7.054004186002445
 21
22.59608939232918
 31
0
 12
-7.886573501548127
 22
22.59608939232918
 32
0
 13
-7.886573501548127
 23
22.59608939232918
 33
0
  0
MTEXT
  5
6F
100
AcDbEntity
  8
Dimensions
  6
CONTINUOUS
 62
    0
370
   -2
100
AcDbMText
 10
-9.345288843775286
 20
20.09614759922405
 30
0
 40
2.5
 41
2.5
 71
    5
 72
    1
  1
10
  7
Standard
210
0
220
0
230
1
 50
90
 73
    2
 44
1
  0
LINE
  5
70
100
AcDbEntity
  8
Dimensions
  6
ByBlock
 62
    0
370
   -2
100
AcDbLine
 10
13.20273832544676
 20
15.09620580611892
 11
-8.720288843775286
 21
15.09620580611892
  0
LINE
  5
71
100
AcDbEntity
  8
Dimensions
  6
ByBlock
 62
    0
370
   -2
100
AcDbLine
 10
13.20395016371964
 20
25.09608939232918
 11
-8.720288843775286
 21
25.09608939232918
  0
ENDBLK
  5
50
330
4E
100
AcDbEntity
  8
0
100
AcDbBlockEnd
  0
BLOCK
  5
52
330
51
100
AcDbEntity
  8
0
100
AcDbBlockBegin
  2
*D4
 70
    1
 10
0
 20
0
  3
*D4
  1

  0
LINE
  5
72
100
AcDbEntity
  8
Dimensions
  6
ByBlock
 62
    0
370
   -2
100
AcDbLine
 10
13.82773788376471
 20
31.3752131438562
 11
3.827800268643429
 21
31.3752131438562
  0
SOLID
  5
73
100
AcDbEntity
  8
Dimensions
  6
ByBlock
 62
    0
370
   -2
100
AcDbTrace
 10
13.82773788376471
 20
31.3752131438562
 30
0
 11
11.32773788376471
 21
30.95892848608336
 31
0
 12
11.32773788376471
 22
31.79149780162904
 32
0
 13
11.32773788376471
 23
31.79149780162904
 33
0
  0
SOLID
  5
74
100
AcDbEntity
  8
Dimensions
  6
ByBlock
 62
    0
370
   -2
100
AcDbTrace
 10
3.827800268643429
 20
31.3752131438562
 30
0
 11
6.327800268643429
 21
31.79149780162904
 31
0
 12
6.327800268643429
 22
30.95892848608336
 32
0
 13
6.327800268643429
 23
30.95892848608336
 33
0
  0
MTEXT
  5
75
100
AcDbEntity
  8
Dimensions
  6
CONTINUOUS
 62
    0
370
   -2
100
AcDbMText
 10
8.827769076204069
 20
33.2502131438562
 30
0
 40
2.5
 41
2.5
 71
    5
 72
    1
  1
10
  7
Standard
210
0
220
0
230
1
 50
360
 73
    2
 44
1
  0
LINE
  5
76
100
AcDbEntity
  8
Dimensions
  6
ByBlock
 62
    0
370
   -2
100
AcDbLine
 10
13.82773788376471
 20
15.72108406554889
 11
13.82773788376471
 21
32.6252131438562
  0
LINE
  5
77
100
AcDbEntity
  8
Dimensions
  6
ByBlock
 62
    0
370
   -2
100
AcDbLine
 10
3.827800268643429
 20
15.75790388276329
 11
3.827800268643429
 21
32.6252131438562
  0
ENDBLK
  5
53
330
51
100
AcDbEntity
  8
0
100
AcDbBlockEnd
  0
BLOCK
  5
55
330
54
100
AcDbEntity
  8
0
100
AcDbBlockBegin
  2
*D9
 70
    1
 10
0
 20
0
  3
*D9
  1

  0
LINE
  5
78
100
AcDbEntity
  8
Dimensions
  6
ByBlock
 62
    0
370
   -2
100
AcDbLine
 10
104.9896574597147
 20
15.80358025296507
 11
117.1073233061707
 21
14.38858787813271
  0
SOLID
  5
79
100
AcDbEntity
  8
Dimensions
  6
ByBlock
 62
    0
370
   -2
100
AcDbTrace
 10
109.9559134705645
 20
15.22366540171729
 30
0
 11
107.4245035340618
 21
15.10014759056339
 31
0
 12
107.5210673962174
 22
15.92709806411897
 32
0
 13
107.5210673962174
 23
15.92709806411897
 33
0
  0
SOLID
  5
7A
100
AcDbEntity
  8
Dimensions
  6
ByBlock
 62
    0
370
   -2
100
AcDbTrace
 10
112.1410672953209
 20
14.96850272938049
 30
0
 11
114.6724772318236
 21
15.09202054053439
 31
0
 12
114.575913369668
 22
14.26507006697881
 32
0
 13
114.575913369668
 23
14.26507006697881
 33
0
  0
MTEXT
  5
7B
100
AcDbEntity
  8
Dimensions
  6
CONTINUOUS
 62
    0
370
   -2
100
AcDbMText
 10
114.9796149258206
 20
16.5247825619573
 30
0
 40
2.5
 41
4.027777777777778
 71
    5
 72
    1
  1
2,2
  7
Standard
210
0
220
0
230
1
 50
353.3396754960913
 73
    2
 44
1
  0
ENDBLK
  5
56
330
54
100
AcDbEntity
  8
0
100
AcDbBlockEnd
  0
BLOCK
  5
58
330
57
100
AcDbEntity
  8
0
100
AcDbBlockBegin
  2
*D1
 70
    1
 10
0
 20
0
  3
*D1
  1

  0
LINE
  5
7C
100
AcDbEntity
  8
Dimensions
  6
ByBlock
 62
    0
370
   -2
100
AcDbLine
 10
13.82773832544677
 20
46.12903361031239
 11
111.0484903829427
 21
46.12903361031239
  0
SOLID
  5
7D
100
AcDbEntity
  8
Dimensions
  6
ByBlock
 62
    0
370
   -2
100
AcDbTrace
 10
13.82773832544677
 20
46.12903361031239
 30
0
 11
16.32773832544677
 21
46.54531826808523
 31
0
 12
16.32773832544677
 22
45.71274895253955
 32
0
 13
16.32773832544677
 23
45.71274895253955
 33
0
  0
SOLID
  5
7E
100
AcDbEntity
  8
Dimensions
  6
ByBlock
 62
    0
370
   -2
100
AcDbTrace
 10
111.0484903829427
 20
46.12903361031239
 30
0
 11
108.5484903829427
 21
45.71274895253955
 31
0
 12
108.5484903829427
 22
46.54531826808523
 32
0
 13
108.5484903829427
 23
46.54531826808523
 33
0
  0
MTEXT
  5
7F
100
AcDbEntity
  8
Dimensions
  6
CONTINUOUS
 62
    0
370
   -2
100
AcDbMText
 10
62.43811435419474
 20
48.00403361031239
 30
0
 40
2.5
 41
7.916666666666822
 71
    5
 72
    1
  1
97,22
  7
Standard
210
0
220
0
230
1
 50
0
 73
    2
 44
1
  0
LINE
  5
80
100
AcDbEntity
  8
Dimensions
  6
ByBlock
 62
    0
370
   -2
100
AcDbLine
 10
13.82773832544676
 20
15.72120580611892
 11
13.82773832544677
 21
47.37903361031239
  0
LINE
  5
81
100
AcDbEntity
  8
Dimensions
  6
ByBlock
 62
    0
370
   -2
100
AcDbLine
 10
111.0484903829427
 20
15.72108406554889
 11
111.0484903829427
 21
47.37903361031239
  0
ENDBLK
  5
59
330
57
100
AcDbEntity
  8
0
100
AcDbBlockEnd
  0
BLOCK
  5
5B
330
5A
100
AcDbEntity
  8
0
100
AcDbBlockBegin
  2
*D7
 70
    1
 10
0
 20
0
  3
*D7
  1

  0
LINE
  5
82
100
AcDbEntity
  8
Dimensions
  6
ByBlock
 62
    0
370
   -2
100
AcDbLine
 10
-17.36842156177754
 20
5.096200484929909
 11
-17.36842156177754
 21
25.09608939232918
  0
SOLID
  5
83
100
AcDbEntity
  8
Dimensions
  6
ByBlock
 62
    0
370
   -2
100
AcDbTrace
 10
-17.36842156177754
 20
5.096200484929909
 30
0
 11
-17.78470621955038
 21
7.596200484929909
 31
0
 12
-16.9521369040047
 22
7.596200484929909
 32
0
 13
-16.9521369040047
 23
7.596200484929909
 33
0
  0
SOLID
  5
84
100
AcDbEntity
  8
Dimensions
  6
ByBlock
 62
    0
370
   -2
100
AcDbTrace
 10
-17.36842156177754
 20
25.09608939232918
 30
0
 11
-16.9521369040047
 21
22.59608939232918
 31
0
 12
-17.78470621955038
 22
22.59608939232918
 32
0
 13
-17.78470621955038
 23
22.59608939232918
 33
0
  0
MTEXT
  5
85
100
AcDbEntity
  8
Dimensions
  6
CONTINUOUS
 62
    0
370
   -2
100
AcDbMText
 10
-19.24342156177754
 20
15.09614493862955
 30
0
 40
2.5
 41
3.055555555555556
 71
    5
 72
    1
  1
20
  7
Standard
210
0
220
0
230
1
 50
90
 73
    2
 44
1
  0
LINE
  5
86
100
AcDbEntity
  8
Dimensions
  6
ByBlock
 62
    0
370
   -2
100
AcDbLine
 10
13.20152187645617
 20
5.096200484929907
 11
-18.61842156177754
 21
5.096200484929909
  0
LINE
  5
87
100
AcDbEntity
  8
Dimensions
  6
ByBlock
 62
    0
370
   -2
100
AcDbLine
 10
13.20395016371964
 20
25.09608939232918
 11
-18.61842156177754
 21
25.09608939232918
  0
ENDBLK
  5
5C
330
5A
100
AcDbEntity
  8
0
100
AcDbBlockEnd
  0
BLOCK
  5
5E
330
5D
100
AcDbEntity
  8
0
100
AcDbBlockBegin
  2
*D2
 70
    1
 10
0
 20
0
  3
*D2
  1

  0
LINE
  5
88
100
AcDbEntity
  8
Dimensions
  6
ByBlock
 62
    0
370
   -2
100
AcDbLine
 10
111.0484903829427
 20
46.31579083140677
 11
208.2692428821206
 21
46.31579083140677
  0
SOLID
  5
89
100
AcDbEntity
  8
Dimensions
  6
ByBlock
 62
    0
370
   -2
100
AcDbTrace
 10
111.0484903829427
 20
46.31579083140677
 30
0
 11
113.5484903829427
 21
46.73207548917961
 31
0
 12
113.5484903829427
 22
45.89950617363393
 32
0
 13
113.5484903829427
 23
45.89950617363393
 33
0
  0
SOLID
  5
8A
100
AcDbEntity
  8
Dimensions
  6
ByBlock
 62
    0
370
   -2
100
AcDbTrace
 10
208.2692428821206
 20
46.31579083140677
 30
0
 11
205.7692428821206
 21
45.89950617363393
 31
0
 12
205.7692428821206
 22
46.73207548917961
 32
0
 13
205.7692428821206
 23
46.73207548917961
 33
0
  0
MTEXT
  5
8B
100
AcDbEntity
  8
Dimensions
  6
CONTINUOUS
 62
    0
370
   -2
100
AcDbMText
 10
159.6588666325317
 20
48.19079083140677
 30
0
 40
2.5
 41
7.916666666666822
 71
    5
 72
    1
  1
97,22
  7
Standard
210
0
220
0
230
1
 50
0
 73
    2
 44
1
  0
LINE
  5
8C
100
AcDbEntity
  8
Dimensions
  6
ByBlock
 62
    0
370
   -2
100
AcDbLine
 10
111.0484903829427
 20
15.72108406554889
 11
111.0484903829427
 21
47.56579083140677
  0
LINE
  5
8D
100
AcDbEntity
  8
Dimensions
  6
ByBlock
 62
    0
370
   -2
100
AcDbLine
 10
208.2692428821206
 20
15.72108406554889
 11
208.2692428821206
 21
47.56579083140677
  0
ENDBLK
  5
5F
330
5D
100
AcDbEntity
  8
0
100
AcDbBlockEnd
  0
BLOCK
  5
61
330
60
100
AcDbEntity
  8
0
100
AcDbBlockBegin
  2
*D3
 70
    1
 10
0
 20
0
  3
*D3
  1

  0
LINE
  5
8E
100
AcDbEntity
  8
Dimensions
  6
ByBlock
 62
    0
370
   -2
100
AcDbLine
 10
208.2692428821206
 20
46.31579083140677
 11
305.490266447038
 21
46.31579083140677
  0
SOLID
  5
8F
100
AcDbEntity
  8
Dimensions
  6
ByBlock
 62
    0
370
   -2
100
AcDbTrace
 10
208.2692428821206
 20
46.31579083140677
 30
0
 11
210.7692428821206
 21
46.73207548917961
 31
0
 12
210.7692428821206
 22
45.89950617363393
 32
0
 13
210.7692428821206
 23
45.89950617363393
 33
0
  0
SOLID
  5
90
100
AcDbEntity
  8
Dimensions
  6
ByBlock
 62
    0
370
   -2
100
AcDbTrace
 10
305.490266447038
 20
46.31579083140677
 30
0
 11
302.990266447038
 21
45.89950617363393
 31
0
 12
302.990266447038
 22
46.73207548917961
 32
0
 13
302.990266447038
 23
46.73207548917961
 33
0
  0
MTEXT
  5
91
100
AcDbEntity
  8
Dimensions
  6
CONTINUOUS
 62
    0
370
   -2
100
AcDbMText
 10
256.8797546645793
 20
48.19079083140677
 30
0
 40
2.5
 41
7.916666666666822
 71
    5
 72
    1
  1
97,22
  7
Standard
210
0
220
0
230
1
 50
0
 73
    2
 44
1
  0
LINE
  5
92
100
AcDbEntity
  8
Dimensions
  6
ByBlock
 62
    0
370
   -2
100
AcDbLine
 10
208.2692428821206
 20
15.72108406554889
 11
208.2692428821206
 21
47.56579083140677
  0
LINE
  5
93
100
AcDbEntity
  8
Dimensions
  6
ByBlock
 62
    0
370
   -2
100
AcDbLine
 10
305.490266447038
 20
15.68572649704154
 11
305.490266447038
 21
47.56579083140677
  0
ENDBLK
  5
62
330
60
100
AcDbEntity
  8
0
100
AcDbBlockEnd
  0
BLOCK
  5
64
330
63
100
AcDbEntity
  8
0
100
AcDbBlockBegin
  2
*D5
 70
    1
 10
0
 20
0
  3
*D5
  1

  0
LINE
  5
94
100
AcDbEntity
  8
Dimensions
  6
ByBlock
 62
    0
370
   -2
100
AcDbLine
 10
3.827800268643443
 20
62.7504262877124
 11
315.4902718470311
 21
62.7504262877124
  0
SOLID
  5
95
100
AcDbEntity
  8
Dimensions
  6
ByBlock
 62
    0
370
   -2
100
AcDbTrace
 10
3.827800268643443
 20
62.7504262877124
 30
0
 11
6.327800268643443
 21
63.16671094548524
 31
0
 12
6.327800268643443
 22
62.33414162993956
 32
0
 13
6.327800268643443
 23
62.33414162993956
 33
0
  0
SOLID
  5
96
100
AcDbEntity
  8
Dimensions
  6
ByBlock
 62
    0
370
   -2
100
AcDbTrace
 10
315.4902718470311
 20
62.7504262877124
 30
0
 11
312.9902718470311
 21
62.33414162993956
 31
0
 12
312.9902718470311
 22
63.16671094548524
 32
0
 13
312.9902718470311
 23
63.16671094548524
 33
0
  0
MTEXT
  5
97
100
AcDbEntity
  8
Dimensions
  6
CONTINUOUS
 62
    0
370
   -2
100
AcDbMText
 10
159.6590360578373
 20
64.6254262877124
 30
0
 40
2.5
 41
8.750000000000465
 71
    5
 72
    1
  1
311,66
  7
Standard
210
0
220
0
230
1
 50
0
 73
    2
 44
1
  0
LINE
  5
98
100
AcDbEntity
  8
Dimensions
  6
ByBlock
 62
    0
370
   -2
100
AcDbLine
 10
3.827800268643429
 20
15.75790388276329
 11
3.827800268643444
 21
64.0004262877124
  0
LINE
  5
99
100
AcDbEntity
  8
Dimensions
  6
ByBlock
 62
    0
370
   -2
100
AcDbLine
 10
315.4902718470311
 20
15.685738335832
 11
315.4902718470311
 21
64.0004262877124
  0
ENDBLK
  5
65
330
63
100
AcDbEntity
  8
0
100
AcDbBlockEnd
  0
BLOCK
  5
67
330
66
100
AcDbEntity
  8
0
100
AcDbBlockBegin
  2
*D8
 70
    1
 10
0
 20
0
  3
*D8
  1

  0
LINE
  5
9A
100
AcDbEntity
  8
Dimensions
  6
ByBlock
 62
    0
370
   -2
100
AcDbLine
 10
13.82773832544677
 20
54.3463513384652
 11
305.490266447038
 21
54.3463513384652
  0
SOLID
  5
9B
100
AcDbEntity
  8
Dimensions
  6
ByBlock
 62
    0
370
   -2
100
AcDbTrace
 10
13.82773832544677
 20
54.3463513384652
 30
0
 11
16.32773832544677
 21
54.76263599623805
 31
0
 12
16.32773832544677
 22
53.93006668069236
 32
0
 13
16.32773832544677
 23
53.93006668069236
 33
0
  0
SOLID
  5
9C
100
AcDbEntity
  8
Dimensions
  6
ByBlock
 62
    0
370
   -2
100
AcDbTrace
 10
305.490266447038
 20
54.3463513384652
 30
0
 11
302.990266447038
 21
53.93006668069236
 31
0
 12
302.990266447038
 22
54.76263599623805
 32
0
 13
302.990266447038
 23
54.76263599623805
 33
0
  0
MTEXT
  5
9D
100
AcDbEntity
  8
Dimensions
  6
CONTINUOUS
 62
    0
370
   -2
100
AcDbMText
 10
159.6590023862424
 20
56.2213513384652
 30
0
 40
2.5
 41
9.305555555555866
 71
    5
 72
    1
  1
291,66
  7
Standard
210
0
220
0
230
1
 50
0
 73
    2
 44
1
  0
LINE
  5
9E
100
AcDbEntity
  8
Dimensions
  6
ByBlock
 62
    0
370
   -2
100
AcDbLine
 10
13.82773832544676
 20
15.72120580611892
 11
13.82773832544677
 21
55.5963513384652
  0
LINE
  5
9F
100
AcDbEntity
  8
Dimensions
  6
ByBlock
 62
    0
370
   -2
100
AcDbLine
 10
305.490266447038
 20
15.68572649704143
 11
305.490266447038
 21
55.5963513384652
  0
ENDBLK
  5
68
330
66
100
AcDbEntity
  8
0
100
AcDbBlockEnd
  0
BLOCK
  5
6A
330
69
100
AcDbEntity
  8
0
100
AcDbBlockBegin
  2
PART__FEATURE
 70
    0
 10
0
 20
0
  3
PART__FEATURE
  1

  0
CIRCLE
  5
A0
100
AcDbEntity
  8
0
  6
ByLayer
 62
    0
370
   -1
100
AcDbCircle
 10
64.55073004835781
 20
-97.01792195984602
 40
1.09999999999999
  0
CIRCLE
  5
A1
100
AcDbEntity
  8
0
  6
ByLayer
 62
    0
370
   -1
100
AcDbCircle
 10
356.213100672269
 20
-97.0534012497647
 40
1.09999999999999
  0
CIRCLE
  5
A2
100
AcDbEntity
  8
0
  6
ByLayer
 62
    0
370
   -1
100
AcDbCircle
 10
161.771429606676
 20
-97.0180437003503
 40
1.09999999999999
  0
CIRCLE
  5
A3
100
AcDbEntity
  8
0
  6
ByLayer
 62
    0
370
   -1
100
AcDbCircle
 10
258.992129606676
 20
-97.0180437003503
 40
1.09999999999999
  0
LINE
  5
A4
100
AcDbEntity
  8
0
  6
ByLayer
 62
    0
370
   -1
100
AcDbLine
 10
356.2130769947012
 20
-87.0534012497924
 11
64.55194188597629
 21
-87.01804377356999
  0
ARC
  5
A5
100
AcDbEntity
  8
0
  6
ByLayer
 62
    0
370
   -1
100
AcDbCircle
 10
356.213100672269
 20
-97.05340124976459
 40
10.0000000000001
100
AcDbArc
 50
270.0000000000009
 51
90.00013566247146
  0
LINE
  5
A6
100
AcDbEntity
  8
0
  6
ByLayer
 62
    0
370
   -1
100
AcDbLine
 10
64.54951360002404
 20
-107.0179218810354
 11
356.213100672269
 21
-107.053401249765
  0
ARC
  5
A7
100
AcDbEntity
  8
0
  6
ByLayer
 62
    0
370
   -1
100
AcDbCircle
 10
64.55073004835781
 20
-97.01792195984602
 40
9.99999999517639
100
AcDbArc
 50
179.7897351506718
 51
269.9930302644276
  0
ARC
  5
A8
100
AcDbEntity
  8
0
  6
ByLayer
 62
    0
370
   -1
100
AcDbCircle
 10
64.550729606676
 20
-97.0180437003503
 40
10.0000000002614
100
AcDbArc
 50
89.9930541512333
 51
179.789037624372
  0
ENDBLK
  5
6B
330
69
100
AcDbEntity
  8
0
100
AcDbBlockEnd
  0
ENDSEC
  0
SECTION
  2
ENTITIES
  0
CIRCLE
  5
A9
100
AcDbEntity
  8
0
  6
ByLayer
 62
    0
370
   -1
100
AcDbCircle
 10
13.82773832544676
 20
15.09620580611892
 40
1.100000593999989
  0
CIRCLE
  5
AA
100
AcDbEntity
  8
0
  6
ByLayer
 62
    0
370
   -1
100
AcDbCircle
 10
305.490266447038
 20
15.06072649704143
 40
1.100000593999989
  0
CIRCLE
  5
AB
100
AcDbEntity
  8
0
  6
ByLayer
 62
    0
370
   -1
100
AcDbCircle
 10
111.0484903829427
 20
15.09608406554889
 40
1.100000593999989
  0
CIRCLE
  5
AC
100
AcDbEntity
  8
0
  6
ByLayer
 62
    0
370
   -1
100
AcDbCircle
 10
208.2692428821206
 20
15.09608406554889
 40
1.100000593999989
  0
LINE
  5
AD
100
AcDbEntity
  8
0
  6
ByLayer
 62
    0
370
   -1
100
AcDbLine
 10
305.4902427694575
 20
25.06073189701373
 11
13.82895016371964
 21
25.09608939232918
  0
ARC
  5
AE
100
AcDbEntity
  8
0
  6
ByLayer
 62
    0
370
   -1
100
AcDbCircle
 10
305.490266447038
 20
15.06072649704154
 40
10.0000054000001
100
AcDbArc
 50
270.0000000000008
 51
90.00013566247151
  0
LINE
  5
AF
100
AcDbEntity
  8
0
  6
ByLayer
 62
    0
370
   -1
100
AcDbLine
 10
13.82652187645611
 20
5.096200484929582
 11
305.490266447038
 21
5.060721097041124
  0
ARC
  5
B0
100
AcDbEntity
  8
0
  6
ByLayer
 62
    0
370
   -1
100
AcDbCircle
 10
13.82773832544676
 20
15.09620580611892
 40
10.00000539517638
100
AcDbArc
 50
179.7897351506719
 51
269.9930302644278
  0
ARC
  5
B1
100
AcDbEntity
  8
0
  6
ByLayer
 62
    0
370
   -1
100
AcDbCircle
 10
13.82773788376471
 20
15.09608406554889
 40
10.0000054002614
100
AcDbArc
 50
89.99305415123314
 51
179.7890376243717
  0
DIMENSION
  5
B2
100
AcDbEntity
  8
Dimensions
  6
ByLayer
 62
  256
370
   -1
100
AcDbDimension
  2
*D1
 10
111.0484903829427
 20
46.12903361031239
 30
0
 11
62.43811435419474
 21
48.00403361031239
 31
0
 70
   32
 71
    5
  3
Standard
 53
0
210
0
220
0
230
1
100
AcDbAlignedDimension
 13
13.82773832544676
 23
15.09620580611892
 33
0
 14
111.0484903829427
 24
15.09608406554889
 34
0
100
AcDbRotatedDimension
  0
DIMENSION
  5
B3
100
AcDbEntity
  8
Dimensions
  6
ByLayer
 62
  256
370
   -1
100
AcDbDimension
  2
*D2
 10
208.2692428821206
 20
46.31579083140677
 30
0
 11
159.6588666325317
 21
48.19079083140677
 31
0
 70
   32
 71
    5
  3
Standard
 53
0
210
0
220
0
230
1
100
AcDbAlignedDimension
 13
111.0484903829427
 23
15.09608406554889
 33
0
 14
208.2692428821206
 24
15.09608406554889
 34
0
100
AcDbRotatedDimension
  0
DIMENSION
  5
B4
100
AcDbEntity
  8
Dimensions
  6
ByLayer
 62
  256
370
   -1
100
AcDbDimension
  2
*D3
 10
305.490266447038
 20
46.31579083140677
 30
0
 11
256.8797546645793
 21
48.19079083140677
 31
0
 70
   32
 71
    5
  3
Standard
 53
0
210
0
220
0
230
1
100
AcDbAlignedDimension
 13
208.2692428821206
 23
15.09608406554889
 33
0
 14
305.490266447038
 24
15.06072649704154
 34
0
100
AcDbRotatedDimension
  0
DIMENSION
  5
B5
100
AcDbEntity
  8
Dimensions
  6
ByLayer
 62
  256
370
   -1
100
AcDbDimension
  2
*D4
 10
3.82780026864343
 20
31.3752131438562
 30
0
 11
8.827769076204069
 21
33.2502131438562
 31
0
 70
   32
 71
    5
  3
Standard
 53
0
210
0
220
0
230
1
100
AcDbAlignedDimension
 13
13.82773788376471
 23
15.09608406554889
 33
0
 14
3.827800268643429
 24
15.13290388276329
 34
0
100
AcDbRotatedDimension
  0
DIMENSION
  5
B6
100
AcDbEntity
  8
Dimensions
  6
ByLayer
 62
  256
370
   -1
100
AcDbDimension
  2
*D5
 10
315.4902718470311
 20
62.7504262877124
 30
0
 11
159.6590360578373
 21
64.6254262877124
 31
0
 70
   32
 71
    5
  3
Standard
 53
0
210
0
220
0
230
1
100
AcDbAlignedDimension
 13
3.827800268643429
 23
15.13290388276329
 33
0
 14
315.4902718470311
 24
15.060738335832
 34
0
100
AcDbRotatedDimension
  0
DIMENSION
  5
B7
100
AcDbEntity
  8
Dimensions
  6
ByLayer
 62
  256
370
   -1
100
AcDbDimension
  2
*D6
 10
-7.470288843775286
 20
25.09608939232918
 30
0
 11
-9.345288843775286
 21
20.09614759922405
 31
0
 70
   32
 71
    5
  3
Standard
 53
0
210
0
220
0
230
1
100
AcDbAlignedDimension
 13
13.82773832544676
 23
15.09620580611892
 33
0
 14
13.82895016371964
 24
25.09608939232918
 34
0
 50
90
100
AcDbRotatedDimension
  0
DIMENSION
  5
B8
100
AcDbEntity
  8
Dimensions
  6
ByLayer
 62
  256
370
   -1
100
AcDbDimension
  2
*D7
 10
-17.36842156177754
 20
25.09608939232918
 30
0
 11
-19.24342156177754
 21
15.09614493862955
 31
0
 70
   32
 71
    5
  3
Standard
 53
0
210
0
220
0
230
1
100
AcDbAlignedDimension
 13
13.82652187645617
 23
5.096200484929907
 33
0
 14
13.82895016371964
 24
25.09608939232918
 34
0
 50
90
100
AcDbRotatedDimension
  0
DIMENSION
  5
B9
100
AcDbEntity
  8
Dimensions
  6
ByLayer
 62
  256
370
   -1
100
AcDbDimension
  2
*D8
 10
305.490266447038
 20
54.3463513384652
 30
0
 11
159.6590023862424
 21
56.2213513384652
 31
0
 70
   32
 71
    5
  3
Standard
 53
0
210
0
220
0
230
1
100
AcDbAlignedDimension
 13
13.82773832544676
 23
15.09620580611892
 33
0
 14
305.490266447038
 24
15.06072649704143
 34
0
100
AcDbRotatedDimension
  0
DIMENSION
  5
BA
100
AcDbEntity
  8
Dimensions
  6
ByLayer
 62
  256
370
   -1
100
AcDbDimension
  2
*D9
 10
109.9559134705645
 20
15.22366540171729
 30
0
 11
111.2659584521606
 21
16.95843006961758
 31
0
 70
   35
 71
    5
  3
Standard
 53
0
210
0
220
0
230
1
100
AcDbDiametricDimension
 15
112.1410672953209
 25
14.96850272938049
 35
0
 40
0
  0
ENDSEC
  0
SECTION
  2
OBJECTS
  0
DICTIONARY
  5
C
330
0
100
AcDbDictionary
281
    1
  3
ACAD_GROUP
350
D
  0
DICTIONARY
  5
D
330
C
100
AcDbDictionary
281
    1
  0
ENDSEC
  0
EOF
